<svg width="41" height="24" viewBox="0 0 41 24" fill="none" xmlns="http://www.w3.org/2000/svg">
<path d="M8.71181 14.832C8.71181 15.3653 8.57848 15.8667 8.31181 16.336C8.05581 16.8053 7.67181 17.2 7.15981 17.52C6.65848 17.84 6.06115 18.032 5.36781 18.096V19.392H4.32781V18.096C3.32515 18 2.51448 17.6853 1.89581 17.152C1.27715 16.6187 0.967813 15.9147 0.967813 15.04H2.91981C2.95181 15.456 3.08515 15.8027 3.31981 16.08C3.55448 16.3467 3.89048 16.5173 4.32781 16.592V13.072C3.61315 12.8907 3.03181 12.7093 2.58381 12.528C2.13581 12.336 1.75181 12.0373 1.43181 11.632C1.12248 11.2267 0.967813 10.672 0.967813 9.968C0.967813 9.08267 1.27715 8.352 1.89581 7.776C2.51448 7.18933 3.32515 6.848 4.32781 6.752V5.456H5.36781V6.752C6.30648 6.83733 7.05848 7.136 7.62381 7.648C8.19981 8.14933 8.52515 8.84267 8.59981 9.728H6.64781C6.61581 9.39733 6.48781 9.104 6.26381 8.848C6.03981 8.58133 5.74115 8.4 5.36781 8.304V11.76C6.08248 11.9307 6.66381 12.112 7.11181 12.304C7.55981 12.4853 7.93848 12.7787 8.24781 13.184C8.55715 13.5787 8.71181 14.128 8.71181 14.832ZM2.82381 9.872C2.82381 10.3093 2.95181 10.6507 3.20781 10.896C3.47448 11.1413 3.84781 11.3387 4.32781 11.488V8.256C3.86915 8.30933 3.50115 8.47467 3.22381 8.752C2.95715 9.02933 2.82381 9.40267 2.82381 9.872ZM5.36781 16.592C5.83715 16.5173 6.20515 16.3307 6.47181 16.032C6.73848 15.7227 6.87181 15.3547 6.87181 14.928C6.87181 14.5013 6.73848 14.1707 6.47181 13.936C6.21581 13.6907 5.84781 13.4933 5.36781 13.344V16.592ZM17.6461 9.04C17.5287 8.54933 17.3154 8.18133 17.0061 7.936C16.6967 7.69067 16.2647 7.568 15.7101 7.568C14.8674 7.568 14.2381 7.89333 13.8221 8.544C13.4061 9.184 13.1874 10.2507 13.1661 11.744C13.4434 11.2747 13.8487 10.912 14.3821 10.656C14.9154 10.4 15.4914 10.272 16.1101 10.272C16.8141 10.272 17.4327 10.4267 17.9661 10.736C18.5101 11.0347 18.9314 11.472 19.2301 12.048C19.5394 12.624 19.6941 13.312 19.6941 14.112C19.6941 14.8587 19.5447 15.5253 19.2461 16.112C18.9581 16.6987 18.5261 17.1627 17.9501 17.504C17.3741 17.8347 16.6807 18 15.8701 18C14.7714 18 13.9074 17.76 13.2781 17.28C12.6594 16.7893 12.2221 16.1013 11.9661 15.216C11.7207 14.3307 11.5981 13.2267 11.5981 11.904C11.5981 8 12.9741 6.048 15.7261 6.048C16.7927 6.048 17.6301 6.336 18.2381 6.912C18.8567 7.488 19.2194 8.19733 19.3261 9.04H17.6461ZM15.7101 11.808C15.0594 11.808 14.5047 12.0053 14.0461 12.4C13.5981 12.784 13.3741 13.344 13.3741 14.08C13.3741 14.816 13.5821 15.4027 13.9981 15.84C14.4247 16.2667 15.0167 16.48 15.7741 16.48C16.4461 16.48 16.9741 16.272 17.3581 15.856C17.7527 15.44 17.9501 14.8853 17.9501 14.192C17.9501 13.4667 17.7581 12.8907 17.3741 12.464C17.0007 12.0267 16.4461 11.808 15.7101 11.808ZM23.9117 14.832C24.0184 15.3653 24.2477 15.7707 24.5997 16.048C24.9517 16.3253 25.4264 16.464 26.0237 16.464C26.781 16.464 27.3357 16.1653 27.6877 15.568C28.0397 14.9707 28.2157 13.952 28.2157 12.512C27.9597 12.8747 27.597 13.1573 27.1277 13.36C26.669 13.552 26.1677 13.648 25.6237 13.648C24.9304 13.648 24.301 13.5093 23.7357 13.232C23.1704 12.944 22.7224 12.5227 22.3917 11.968C22.0717 11.4027 21.9117 10.72 21.9117 9.92C21.9117 8.74667 22.253 7.81333 22.9357 7.12C23.629 6.416 24.5784 6.064 25.7837 6.064C27.2344 6.064 28.2637 6.54933 28.8717 7.52C29.4904 8.48 29.7997 9.95733 29.7997 11.952C29.7997 13.328 29.6824 14.4533 29.4477 15.328C29.2237 16.2027 28.829 16.864 28.2637 17.312C27.6984 17.76 26.9144 17.984 25.9117 17.984C24.7704 17.984 23.8904 17.6853 23.2717 17.088C22.653 16.4907 22.3064 15.7387 22.2317 14.832H23.9117ZM25.9437 12.112C26.5837 12.112 27.085 11.9147 27.4477 11.52C27.821 11.1147 28.0077 10.5813 28.0077 9.92C28.0077 9.184 27.8104 8.61333 27.4157 8.208C27.0317 7.792 26.5037 7.584 25.8317 7.584C25.1597 7.584 24.6264 7.79733 24.2317 8.224C23.8477 8.64 23.6557 9.18933 23.6557 9.872C23.6557 10.5227 23.8424 11.0613 24.2157 11.488C24.5997 11.904 25.1757 12.112 25.9437 12.112ZM34.0679 14.832C34.1746 15.3653 34.4039 15.7707 34.7559 16.048C35.1079 16.3253 35.5826 16.464 36.1799 16.464C36.9373 16.464 37.4919 16.1653 37.8439 15.568C38.1959 14.9707 38.3719 13.952 38.3719 12.512C38.1159 12.8747 37.7533 13.1573 37.2839 13.36C36.8253 13.552 36.3239 13.648 35.7799 13.648C35.0866 13.648 34.4573 13.5093 33.8919 13.232C33.3266 12.944 32.8786 12.5227 32.5479 11.968C32.2279 11.4027 32.0679 10.72 32.0679 9.92C32.0679 8.74667 32.4093 7.81333 33.0919 7.12C33.7853 6.416 34.7346 6.064 35.9399 6.064C37.3906 6.064 38.4199 6.54933 39.0279 7.52C39.6466 8.48 39.9559 9.95733 39.9559 11.952C39.9559 13.328 39.8386 14.4533 39.6039 15.328C39.3799 16.2027 38.9853 16.864 38.4199 17.312C37.8546 17.76 37.0706 17.984 36.0679 17.984C34.9266 17.984 34.0466 17.6853 33.4279 17.088C32.8093 16.4907 32.4626 15.7387 32.3879 14.832H34.0679ZM36.0999 12.112C36.7399 12.112 37.2413 11.9147 37.6039 11.52C37.9773 11.1147 38.1639 10.5813 38.1639 9.92C38.1639 9.184 37.9666 8.61333 37.5719 8.208C37.1879 7.792 36.6599 7.584 35.9879 7.584C35.3159 7.584 34.7826 7.79733 34.3879 8.224C34.0039 8.64 33.8119 9.18933 33.8119 9.872C33.8119 10.5227 33.9986 11.0613 34.3719 11.488C34.7559 11.904 35.3319 12.112 36.0999 12.112Z" fill="#666666"/>
<line x1="2" y1="11.5" x2="41" y2="11.5" stroke="#666666"/>
</svg>
