<svg width="397" height="268" viewBox="0 0 397 268" fill="none" xmlns="http://www.w3.org/2000/svg">
<path d="M255.535 243.202C255.535 312.635 199.328 368.92 129.996 368.92C60.6628 368.92 4.45559 312.635 4.45559 243.202C4.45562 173.769 60.6628 117.484 129.996 117.484C199.328 117.485 255.535 173.77 255.535 243.202Z" stroke="#E5E5E5"/>
<path d="M283.728 233.237C283.728 310.925 220.839 373.901 143.263 373.901C65.687 373.901 2.79735 310.925 2.79714 233.237C2.79715 155.55 65.6869 92.5723 143.263 92.5723C220.839 92.5724 283.728 155.55 283.728 233.237Z" stroke="#E5E5E5"/>
<path d="M307.775 224.935C307.774 309.96 238.946 378.885 154.042 378.885C69.139 378.885 0.310073 309.96 0.309838 224.935C0.309842 139.909 69.1388 70.9834 154.042 70.9834C238.946 70.9834 307.775 139.909 307.775 224.935Z" stroke="#E5E5E5"/>
<path d="M335.139 216.63C335.139 308.076 261.112 382.206 169.797 382.206C78.4825 382.206 4.45638 308.075 4.45632 216.63C4.45633 125.184 78.4825 51.0539 169.797 51.0537C261.112 51.0537 335.139 125.184 335.139 216.63Z" stroke="#E5E5E5"/>
<path d="M361.673 208.741C361.673 306.378 282.634 385.527 185.137 385.527C87.6402 385.527 8.60207 306.378 8.60207 208.741C8.60211 111.104 87.6402 31.9553 185.137 31.9551C282.634 31.9551 361.673 111.104 361.673 208.741Z" stroke="#E5E5E5"/>
<path d="M396.5 195.456C396.5 302.724 309.665 389.68 202.551 389.68C95.4367 389.68 8.60181 302.723 8.60158 195.456C8.60159 88.1884 95.4365 1.23156 202.551 1.23144C309.665 1.23144 396.5 88.1883 396.5 195.456Z" stroke="#E5E5E5"/>
</svg>
