<svg width="91" height="111" viewBox="0 0 91 111" fill="none" xmlns="http://www.w3.org/2000/svg">
<path d="M77.2343 110.06C77.2885 110.06 77.3419 110.047 77.3893 110.021C77.4367 109.994 77.4763 109.956 77.5043 109.91C77.8643 109.363 78.1976 108.813 78.5043 108.26C78.5497 108.186 78.5645 108.098 78.5459 108.014C78.5272 107.93 78.4764 107.857 78.4043 107.81C78.3298 107.765 78.2409 107.752 78.1567 107.772C78.0725 107.793 77.9998 107.846 77.9543 107.92C77.6143 108.47 77.2743 109.01 76.9543 109.56C76.93 109.595 76.9131 109.635 76.9045 109.676C76.8959 109.718 76.8958 109.762 76.9042 109.804C76.9126 109.845 76.9293 109.885 76.9534 109.921C76.9775 109.956 77.0083 109.986 77.0443 110.01C77.1026 110.041 77.1678 110.059 77.2343 110.06ZM79.2343 106.74C79.2907 106.739 79.3461 106.724 79.3952 106.696C79.4442 106.668 79.4852 106.628 79.5142 106.58C79.8342 106.01 80.1542 105.44 80.5142 104.87C80.5547 104.795 80.5649 104.707 80.5425 104.625C80.5202 104.544 80.467 104.473 80.3943 104.43C80.3184 104.39 80.2301 104.381 80.148 104.406C80.0659 104.43 79.9964 104.485 79.9543 104.56C79.6442 105.13 79.3243 105.69 79.0043 106.25C78.9599 106.324 78.9465 106.413 78.9671 106.497C78.9877 106.581 79.0405 106.654 79.1143 106.7C79.1663 106.728 79.225 106.742 79.2843 106.74H79.2343ZM81.0943 103.32C81.1544 103.319 81.2133 103.302 81.2644 103.27C81.3155 103.238 81.357 103.193 81.3843 103.14C81.6843 102.56 81.9743 101.97 82.2543 101.39C82.273 101.351 82.2839 101.31 82.2864 101.268C82.289 101.226 82.2831 101.183 82.2691 101.143C82.2552 101.103 82.2334 101.066 82.2051 101.035C82.1768 101.003 82.1425 100.978 82.1043 100.96C82.0662 100.941 82.0249 100.93 81.9826 100.927C81.9403 100.925 81.8979 100.931 81.8579 100.945C81.8179 100.959 81.7811 100.98 81.7496 101.009C81.7181 101.037 81.6925 101.071 81.6743 101.11C81.3943 101.69 81.1043 102.27 80.8043 102.85C80.7856 102.888 80.7747 102.929 80.7721 102.971C80.7696 103.013 80.7754 103.056 80.7894 103.096C80.8033 103.136 80.8251 103.173 80.8534 103.204C80.8817 103.236 80.916 103.261 80.9543 103.28C80.9811 103.3 81.012 103.314 81.0448 103.321C81.0776 103.327 81.1116 103.327 81.1443 103.32H81.0943ZM82.7843 99.7995C82.8469 99.7986 82.9081 99.7803 82.961 99.7468C83.014 99.7133 83.0566 99.6658 83.0843 99.6095L83.8643 97.8195C83.8973 97.7386 83.8969 97.6479 83.8632 97.5673C83.8294 97.4867 83.7651 97.4228 83.6843 97.3895C83.6046 97.3595 83.5164 97.3615 83.4381 97.3951C83.3598 97.4286 83.2975 97.4911 83.2642 97.5695C83.0142 98.1595 82.7543 98.7495 82.4943 99.3495C82.4761 99.3874 82.4658 99.4286 82.4641 99.4707C82.4623 99.5127 82.4692 99.5546 82.4842 99.5939C82.4991 99.6332 82.5219 99.669 82.5512 99.6992C82.5804 99.7294 82.6155 99.7533 82.6543 99.7695C82.7099 99.7974 82.7726 99.8078 82.8343 99.7995H82.7843ZM84.2943 96.2095C84.3583 96.2089 84.4208 96.1896 84.474 96.1541C84.5273 96.1186 84.569 96.0684 84.5943 96.0095C84.8343 95.3895 85.0643 94.7795 85.2943 94.1695C85.3084 94.1295 85.3145 94.0871 85.312 94.0447C85.3096 94.0023 85.2988 93.9608 85.2802 93.9226C85.2616 93.8845 85.2356 93.8504 85.2036 93.8224C85.1717 93.7944 85.1345 93.773 85.0943 93.7595C85.0146 93.7331 84.9278 93.738 84.8517 93.7733C84.7755 93.8086 84.7156 93.8716 84.6843 93.9495C84.4643 94.5595 84.2343 95.1595 83.9943 95.7695C83.9643 95.8492 83.9663 95.9375 83.9998 96.0157C84.0334 96.094 84.0959 96.1563 84.1743 96.1895L84.2943 96.2095ZM85.6343 92.5495C85.701 92.5487 85.7658 92.5271 85.8195 92.4876C85.8733 92.4482 85.9135 92.3929 85.9343 92.3295C86.1543 91.7095 86.3543 91.0895 86.5443 90.4695C86.5696 90.3873 86.5619 90.2984 86.5227 90.2218C86.4834 90.1452 86.4158 90.087 86.3343 90.0595C86.252 90.0342 86.1632 90.0419 86.0866 90.0812C86.01 90.1204 85.9518 90.188 85.9243 90.2695C85.7343 90.8895 85.5343 91.4995 85.3243 92.1195C85.2989 92.2018 85.3067 92.2906 85.3459 92.3672C85.3851 92.4438 85.4527 92.5021 85.5343 92.5295L85.6343 92.5495ZM86.7943 88.8295C86.8648 88.8279 86.933 88.8038 86.9888 88.7606C87.0446 88.7174 87.085 88.6574 87.1043 88.5895C87.2843 87.9595 87.4643 87.3295 87.6243 86.7095C87.6458 86.626 87.6338 86.5374 87.5908 86.4626C87.5478 86.3879 87.4773 86.3329 87.3943 86.3095C87.3535 86.299 87.3112 86.2966 87.2696 86.3025C87.2279 86.3083 87.1879 86.3223 87.1516 86.3437C87.1154 86.3651 87.0837 86.3934 87.0584 86.427C87.0332 86.4606 87.0148 86.4988 87.0043 86.5395C86.8343 87.1595 86.6643 87.7895 86.4843 88.4095C86.4721 88.4502 86.4681 88.493 86.4726 88.5352C86.477 88.5775 86.4899 88.6184 86.5104 88.6557C86.5309 88.6929 86.5586 88.7257 86.5919 88.7521C86.6252 88.7785 86.6633 88.798 86.7043 88.8095L86.7943 88.8295ZM87.7943 85.0595C87.8661 85.0573 87.9353 85.0317 87.9912 84.9866C88.0472 84.9414 88.0869 84.8793 88.1043 84.8095C88.2543 84.1695 88.4043 83.5295 88.5343 82.8995C88.5446 82.8588 88.5465 82.8163 88.5399 82.7748C88.5333 82.7333 88.5183 82.6936 88.4958 82.658C88.4734 82.6225 88.4439 82.5919 88.4093 82.5681C88.3746 82.5443 88.3355 82.5277 88.2943 82.5195C88.2529 82.5092 88.2099 82.5072 88.1677 82.5137C88.1255 82.5202 88.0851 82.535 88.0487 82.5574C88.0124 82.5798 87.9809 82.6092 87.9561 82.6439C87.9313 82.6786 87.9136 82.7179 87.9043 82.7595C87.7743 83.3895 87.6243 84.0195 87.4743 84.6595C87.456 84.743 87.4709 84.8302 87.5157 84.9029C87.5604 84.9757 87.6316 85.0282 87.7143 85.0495L87.7943 85.0595ZM88.6143 81.2395C88.6897 81.2409 88.7632 81.2155 88.8217 81.1679C88.8803 81.1204 88.9202 81.0536 88.9343 80.9795C89.0543 80.3395 89.1743 79.6995 89.2843 79.0595C89.2988 78.976 89.2795 78.8901 89.2308 78.8207C89.1821 78.7514 89.1078 78.7042 89.0243 78.6895C88.9822 78.6809 88.9388 78.6808 88.8966 78.6893C88.8545 78.6977 88.8145 78.7146 88.7791 78.7389C88.7436 78.7631 88.7134 78.7943 88.6903 78.8305C88.6671 78.8667 88.6514 78.9072 88.6443 78.9495C88.5343 79.5795 88.4243 80.2195 88.2943 80.8595C88.2856 80.9016 88.2855 80.945 88.294 80.9872C88.3024 81.0293 88.3193 81.0693 88.3436 81.1047C88.3679 81.1402 88.399 81.1704 88.4352 81.1936C88.4714 81.2167 88.5119 81.2324 88.5543 81.2395H88.6143ZM89.2743 77.3995C89.3517 77.4027 89.4275 77.3767 89.4867 77.3267C89.546 77.2767 89.5843 77.2064 89.5943 77.1295C89.6943 76.4795 89.7843 75.8295 89.8643 75.1895C89.8699 75.1475 89.867 75.1047 89.8559 75.0637C89.8448 75.0228 89.8257 74.9844 89.7996 74.9509C89.7736 74.9174 89.7412 74.8894 89.7042 74.8686C89.6672 74.8477 89.6264 74.8345 89.5843 74.8295C89.542 74.8225 89.4987 74.8242 89.4572 74.8348C89.4156 74.8453 89.3767 74.8643 89.3429 74.8906C89.309 74.9169 89.2811 74.9499 89.2606 74.9876C89.2402 75.0253 89.2278 75.0668 89.2243 75.1095C89.1443 75.7362 89.0543 76.3762 88.9543 77.0295C88.9426 77.1142 88.9643 77.2 89.0146 77.269C89.065 77.338 89.1401 77.3848 89.2243 77.3995H89.2743ZM89.7642 73.5295C89.8448 73.5323 89.9233 73.5036 89.9831 73.4494C90.0428 73.3953 90.0791 73.32 90.0843 73.2395C90.1543 72.5895 90.2243 71.9395 90.2743 71.2995C90.2798 71.2136 90.2516 71.1289 90.1955 71.0635C90.1395 70.9981 90.0601 70.9572 89.9743 70.9495C89.9325 70.9439 89.89 70.9471 89.8495 70.959C89.8091 70.9709 89.7716 70.9912 89.7395 71.0186C89.7074 71.046 89.6815 71.0798 89.6634 71.1178C89.6452 71.1559 89.6353 71.1974 89.6343 71.2395C89.5743 71.8795 89.5143 72.5295 89.4443 73.1795C89.4402 73.2216 89.4444 73.264 89.4568 73.3045C89.4691 73.3449 89.4894 73.3824 89.5163 73.415C89.5433 73.4475 89.5765 73.4744 89.6139 73.494C89.6513 73.5137 89.6922 73.5258 89.7343 73.5295H89.7642ZM90.0943 69.6495C90.1758 69.6497 90.2543 69.6187 90.3137 69.563C90.3732 69.5072 90.4092 69.4309 90.4143 69.3495C90.4143 68.6795 90.4942 68.0295 90.5142 67.3495C90.5169 67.3067 90.511 67.2637 90.4968 67.2232C90.4825 67.1827 90.4603 67.1455 90.4314 67.1138C90.4024 67.0821 90.3674 67.0565 90.3284 67.0386C90.2894 67.0207 90.2472 67.0108 90.2043 67.0095C90.1203 67.0134 90.0404 67.0465 89.9783 67.1031C89.9162 67.1597 89.8759 67.2363 89.8643 67.3195C89.8643 67.9595 89.8643 68.6095 89.7743 69.2595C89.7687 69.3455 89.797 69.4302 89.8531 69.4956C89.9091 69.561 89.9885 69.6019 90.0743 69.6095L90.0943 69.6495ZM90.2443 65.7495C90.3292 65.7495 90.4105 65.7158 90.4705 65.6558C90.5306 65.5958 90.5643 65.5144 90.5643 65.4295C90.5643 64.9695 90.5643 64.5195 90.5643 64.0695V63.4795C90.5643 63.3947 90.5306 63.3133 90.4705 63.2533C90.4105 63.1932 90.3292 63.1595 90.2443 63.1595C90.1594 63.1595 90.078 63.1932 90.018 63.2533C89.958 63.3133 89.9243 63.3947 89.9243 63.4795V64.0695C89.9243 64.5195 89.9243 64.9695 89.9243 65.4195C89.9229 65.4624 89.9302 65.5051 89.9457 65.5451C89.9612 65.585 89.9845 65.6215 90.0144 65.6523C90.0442 65.6831 90.08 65.7076 90.1195 65.7243C90.159 65.741 90.2014 65.7495 90.2443 65.7495ZM90.2443 61.8495C90.2872 61.8496 90.3296 61.841 90.3691 61.8242C90.4086 61.8075 90.4443 61.7831 90.4741 61.7523C90.504 61.7215 90.5274 61.6851 90.5429 61.6451C90.5584 61.6051 90.5656 61.5624 90.5643 61.5195C90.5643 60.8495 90.5043 60.1995 90.4743 59.5195C90.4666 59.4337 90.4257 59.3543 90.3603 59.2983C90.2949 59.2422 90.2102 59.214 90.1243 59.2195C90.0822 59.2221 90.0411 59.2329 90.0033 59.2514C89.9654 59.2699 89.9315 59.2956 89.9037 59.3272C89.8758 59.3588 89.8544 59.3956 89.8408 59.4355C89.8272 59.4753 89.8216 59.5175 89.8243 59.5595C89.8243 60.1895 89.8943 60.8395 89.9143 61.4995C89.9096 61.5466 89.9154 61.5942 89.9314 61.6388C89.9473 61.6834 89.973 61.7239 90.0064 61.7574C90.0399 61.7909 90.0804 61.8165 90.125 61.8324C90.1696 61.8484 90.2171 61.8542 90.2642 61.8495H90.2443ZM90.0142 57.9595C90.0563 57.9558 90.0973 57.9437 90.1347 57.924C90.1721 57.9044 90.2052 57.8775 90.2322 57.845C90.2592 57.8124 90.2794 57.7749 90.2918 57.7345C90.3041 57.694 90.3084 57.6516 90.3043 57.6095C90.2443 56.9429 90.1743 56.2762 90.0943 55.6095C90.0907 55.5668 90.0784 55.5253 90.0579 55.4876C90.0375 55.4499 90.0095 55.4169 89.9757 55.3906C89.9418 55.3643 89.9029 55.3453 89.8614 55.3348C89.8198 55.3243 89.7766 55.3225 89.7343 55.3295C89.6502 55.342 89.5742 55.3863 89.5221 55.4534C89.4699 55.5204 89.4456 55.605 89.4543 55.6895C89.5343 56.2995 89.6043 56.9495 89.6643 57.6195C89.6603 57.6688 89.6677 57.7182 89.6861 57.7641C89.7044 57.81 89.7331 57.851 89.7699 57.8839C89.8067 57.9168 89.8506 57.9408 89.8982 57.9539C89.9458 57.967 89.9958 57.969 90.0443 57.9595H90.0142ZM89.5343 54.0895C89.6178 54.0749 89.6921 54.0277 89.7408 53.9583C89.7896 53.889 89.8088 53.8031 89.7943 53.7195L89.7343 53.3295C89.6443 52.8195 89.5443 52.3295 89.4443 51.7895C89.436 51.7481 89.4194 51.7087 89.3958 51.6736C89.3721 51.6385 89.3418 51.6085 89.3064 51.5853C89.2711 51.562 89.2315 51.546 89.1899 51.5381C89.1483 51.5303 89.1057 51.5308 89.0643 51.5395C89.0222 51.5466 88.9819 51.5622 88.9461 51.5855C88.9103 51.6088 88.8798 51.6392 88.8563 51.6749C88.8328 51.7106 88.8169 51.7508 88.8097 51.7928C88.8025 51.8349 88.8041 51.8781 88.8143 51.9195C88.9143 52.4295 89.0043 52.9195 89.0943 53.4395L89.1643 53.8195C89.1685 53.8645 89.1826 53.908 89.2054 53.947C89.2282 53.986 89.2593 54.0196 89.2965 54.0453C89.3336 54.071 89.376 54.0883 89.4205 54.0959C89.465 54.1036 89.5107 54.1014 89.5543 54.0895H89.5343ZM88.7642 50.2695H88.8343C88.8755 50.2613 88.9147 50.2448 88.9493 50.221C88.984 50.1972 89.0134 50.1666 89.0359 50.131C89.0583 50.0955 89.0733 50.0558 89.0799 50.0142C89.0865 49.9727 89.0846 49.9303 89.0743 49.8895C88.9243 49.2495 88.7743 48.6195 88.6043 47.9795C88.5928 47.9386 88.5733 47.9004 88.5468 47.8671C88.5204 47.8338 88.4876 47.8061 88.4504 47.7857C88.4132 47.7652 88.3722 47.7523 88.33 47.7478C88.2877 47.7433 88.245 47.7473 88.2043 47.7595C88.1635 47.77 88.1253 47.7884 88.0917 47.8137C88.0581 47.839 88.0298 47.8706 88.0084 47.9069C87.9871 47.9431 87.9731 47.9832 87.9672 48.0248C87.9613 48.0664 87.9637 48.1088 87.9743 48.1495C88.1443 48.7795 88.3043 49.3995 88.4443 50.0295C88.4648 50.1025 88.5098 50.1662 88.5717 50.2099C88.6336 50.2536 88.7087 50.2747 88.7843 50.2695H88.7642ZM87.7642 46.5095H87.8543C87.8952 46.498 87.9334 46.4785 87.9667 46.4521C88 46.4257 88.0276 46.3929 88.0481 46.3557C88.0686 46.3184 88.0815 46.2775 88.086 46.2352C88.0904 46.193 88.0865 46.1502 88.0743 46.1095C87.8843 45.4795 87.6843 44.8595 87.4743 44.2395C87.4608 44.1993 87.4394 44.1621 87.4114 44.1302C87.3834 44.0983 87.3493 44.0723 87.3112 44.0536C87.273 44.035 87.2315 44.0242 87.1891 44.0218C87.1467 44.0194 87.1043 44.0254 87.0643 44.0395C87.024 44.053 86.9868 44.0744 86.9549 44.1024C86.923 44.1304 86.897 44.1645 86.8784 44.2026C86.8598 44.2408 86.8489 44.2823 86.8465 44.3247C86.8441 44.3671 86.8501 44.4095 86.8643 44.4495C87.0743 45.0595 87.2643 45.6795 87.4543 46.2995C87.4778 46.3643 87.5218 46.4198 87.5794 46.4576C87.6371 46.4955 87.7054 46.5137 87.7743 46.5095H87.7642ZM86.5142 42.8095C86.5503 42.8188 86.5882 42.8188 86.6243 42.8095C86.7038 42.7802 86.7684 42.7207 86.804 42.6438C86.8397 42.5669 86.8433 42.4791 86.8143 42.3995C86.5843 41.7895 86.3443 41.1795 86.0843 40.5795C86.0688 40.5399 86.0457 40.5037 86.0161 40.4731C85.9866 40.4425 85.9512 40.4181 85.9121 40.4013C85.873 40.3846 85.8309 40.3758 85.7884 40.3755C85.7458 40.3752 85.7036 40.3834 85.6643 40.3995C85.6255 40.4159 85.5904 40.4398 85.5608 40.4698C85.5313 40.4997 85.5079 40.5353 85.4922 40.5743C85.4764 40.6133 85.4684 40.655 85.4688 40.6971C85.4691 40.7392 85.4778 40.7808 85.4943 40.8195C85.7443 41.4195 85.9843 42.0195 86.2043 42.6295C86.2338 42.6879 86.28 42.7361 86.3369 42.7681C86.3939 42.8002 86.4591 42.8146 86.5243 42.8095H86.5142ZM85.0443 39.2695C85.0905 39.279 85.1381 39.279 85.1843 39.2695C85.2615 39.2326 85.3214 39.1671 85.3512 39.0869C85.3811 39.0067 85.3786 38.918 85.3443 38.8395C85.0643 38.2495 84.7843 37.6595 84.4843 37.0695C84.4439 36.9958 84.3769 36.9403 84.297 36.9143C84.2171 36.8883 84.1303 36.8937 84.0543 36.9295C83.9763 36.9683 83.9167 37.0362 83.8886 37.1186C83.8605 37.2011 83.8662 37.2912 83.9043 37.3695C84.2043 37.9395 84.4843 38.5195 84.7543 39.1095C84.7826 39.1609 84.8248 39.2032 84.8761 39.2315C84.9275 39.2598 84.9858 39.273 85.0443 39.2695ZM83.2843 35.7895C83.3333 35.8032 83.3852 35.8032 83.4343 35.7895C83.4721 35.7696 83.5056 35.7423 83.5327 35.7093C83.5599 35.6762 83.5801 35.638 83.5922 35.597C83.6043 35.556 83.6081 35.5129 83.6033 35.4704C83.5985 35.4279 83.5853 35.3868 83.5643 35.3495C83.2443 34.7795 82.9143 34.2095 82.5643 33.6595C82.5437 33.6223 82.5156 33.5897 82.4819 33.5638C82.4482 33.5379 82.4095 33.5192 82.3682 33.5088C82.3269 33.4985 82.284 33.4968 82.242 33.5038C82.2001 33.5108 82.16 33.5264 82.1243 33.5495C82.0881 33.5711 82.0565 33.5997 82.0314 33.6335C82.0063 33.6673 81.9881 33.7058 81.9779 33.7467C81.9677 33.7876 81.9656 33.8301 81.9718 33.8717C81.9781 33.9134 81.9925 33.9534 82.0142 33.9895C82.3542 34.5395 82.6742 35.0995 83.0142 35.6695C83.0472 35.6972 83.0856 35.7177 83.1269 35.7298C83.1682 35.7418 83.2116 35.7452 83.2543 35.7395L83.2843 35.7895ZM81.2843 32.4595C81.3429 32.4773 81.4056 32.4773 81.4643 32.4595C81.5002 32.4363 81.5311 32.4061 81.5552 32.3707C81.5793 32.3353 81.5959 32.2955 81.6043 32.2535C81.6127 32.2116 81.6126 32.1684 81.604 32.1265C81.5954 32.0846 81.5785 32.0448 81.5543 32.0095C81.1843 31.4695 80.8143 30.9295 80.4243 30.3995C80.3726 30.3323 80.2971 30.2875 80.2133 30.2745C80.1295 30.2614 80.0439 30.2811 79.9743 30.3295C79.907 30.3812 79.8622 30.4567 79.8492 30.5405C79.8362 30.6243 79.8559 30.7099 79.9043 30.7795C80.2843 31.2995 80.6542 31.8295 81.0142 32.3695C81.0776 32.4065 81.1518 32.4207 81.2243 32.4095L81.2843 32.4595ZM37.2843 30.2495H37.6943C37.7364 30.247 37.7775 30.2362 37.8153 30.2177C37.8532 30.1992 37.887 30.1734 37.9149 30.1418C37.9428 30.1102 37.9641 30.0735 37.9777 30.0336C37.9914 29.9937 37.997 29.9516 37.9943 29.9095C37.9931 29.867 37.9832 29.8252 37.9652 29.7867C37.9472 29.7482 37.9214 29.7137 37.8895 29.6856C37.8576 29.6575 37.8203 29.6362 37.7798 29.6231C37.7393 29.61 37.6966 29.6054 37.6543 29.6095C37.2717 29.6446 36.8868 29.6446 36.5043 29.6095C36.2751 29.5807 36.048 29.5373 35.8243 29.4795C35.7408 29.458 35.6522 29.47 35.5774 29.513C35.5027 29.556 35.4477 29.6265 35.4243 29.7095C35.4139 29.7509 35.4119 29.794 35.4184 29.8361C35.4249 29.8783 35.4398 29.9187 35.4621 29.9551C35.4845 29.9914 35.5139 30.0229 35.5486 30.0477C35.5833 30.0725 35.6227 30.0901 35.6643 30.0995C35.9166 30.1696 36.1741 30.2198 36.4343 30.2495C36.6816 30.2446 36.9286 30.228 37.1743 30.1995L37.2843 30.2495ZM39.5843 29.8595H39.6843C40.3339 29.6314 40.9394 29.2931 41.4743 28.8595C41.5341 28.7979 41.5677 28.7154 41.5677 28.6295C41.5677 28.5436 41.5341 28.4611 41.4743 28.3995C41.4444 28.3687 41.4087 28.3442 41.3692 28.3274C41.3297 28.3107 41.2872 28.302 41.2443 28.302C41.2014 28.302 41.1589 28.3107 41.1194 28.3274C41.0798 28.3442 41.0441 28.3687 41.0142 28.3995C40.5365 28.7812 39.9994 29.0818 39.4243 29.2895C39.384 29.303 39.3469 29.3244 39.315 29.3524C39.2831 29.3804 39.257 29.4145 39.2384 29.4526C39.2198 29.4908 39.2089 29.5323 39.2065 29.5747C39.2041 29.617 39.2101 29.6595 39.2243 29.6995C39.2557 29.7346 39.2942 29.7626 39.3374 29.7816C39.3805 29.8006 39.4272 29.8101 39.4743 29.8095L39.5843 29.8595ZM79.0343 29.3195C79.1071 29.3204 79.1779 29.2956 79.2343 29.2495C79.2941 29.1879 79.3277 29.1054 79.3277 29.0195C79.3277 28.9336 79.2941 28.8511 79.2343 28.7895C78.8243 28.2795 78.3943 27.7895 77.9743 27.2895C77.9127 27.2297 77.8302 27.1962 77.7443 27.1962C77.6584 27.1962 77.5758 27.2297 77.5142 27.2895C77.4544 27.3511 77.4209 27.4336 77.4209 27.5195C77.4209 27.6054 77.4544 27.6879 77.5142 27.7495C77.9342 28.2295 78.3543 28.7495 78.7543 29.2295C78.8065 29.2574 78.8651 29.2712 78.9243 29.2695L79.0343 29.3195ZM33.9743 29.2695C34.0269 29.268 34.0785 29.2546 34.1253 29.2304C34.172 29.2062 34.2127 29.1717 34.2443 29.1295C34.2896 29.0563 34.3045 28.9683 34.2859 28.8842C34.2672 28.8001 34.2164 28.7267 34.1443 28.6795C33.6284 28.3369 33.161 27.9266 32.7543 27.4595C32.6944 27.4003 32.6135 27.3671 32.5293 27.3671C32.445 27.3671 32.3642 27.4003 32.3043 27.4595C32.2444 27.5211 32.2109 27.6036 32.2109 27.6895C32.2109 27.7754 32.2444 27.8579 32.3043 27.9195C32.7478 28.4368 33.263 28.8881 33.8343 29.2595C33.8441 29.2635 33.8541 29.2668 33.8643 29.2695H33.9743ZM42.5043 27.4195C42.5617 27.418 42.6177 27.4015 42.6668 27.3717C42.7159 27.3419 42.7564 27.2998 42.7843 27.2495C43.1144 26.6268 43.328 25.949 43.4143 25.2495C43.4199 25.2075 43.4171 25.1647 43.406 25.1237C43.3949 25.0828 43.3757 25.0444 43.3496 25.0109C43.3236 24.9774 43.2912 24.9494 43.2542 24.9286C43.2172 24.9078 43.1765 24.8945 43.1343 24.8895C43.0508 24.8781 42.9662 24.9 42.8988 24.9506C42.8314 25.0011 42.7866 25.0762 42.7743 25.1595C42.6913 25.7666 42.5053 26.3551 42.2243 26.8995C42.2033 26.9368 42.1901 26.9779 42.1853 27.0204C42.1805 27.0629 42.1843 27.106 42.1964 27.147C42.2085 27.188 42.2287 27.2262 42.2558 27.2592C42.283 27.2923 42.3164 27.3196 42.3543 27.3395C42.367 27.3503 42.3803 27.3603 42.3943 27.3695L42.5043 27.4195ZM76.4543 26.4195C76.5397 26.4204 76.6222 26.3882 76.6843 26.3295C76.7442 26.2679 76.7776 26.1854 76.7776 26.0995C76.7776 26.0136 76.7442 25.9311 76.6843 25.8695C76.2243 25.3995 75.7543 24.9395 75.2843 24.4895C75.2227 24.4297 75.1402 24.3962 75.0543 24.3962C74.9684 24.3962 74.8859 24.4297 74.8243 24.4895C74.7651 24.5494 74.7318 24.6303 74.7318 24.7145C74.7318 24.7988 74.7651 24.8796 74.8243 24.9395C75.2843 25.3795 75.7443 25.8395 76.1943 26.2995C76.2399 26.3258 76.2916 26.3396 76.3443 26.3395L76.4543 26.4195ZM31.4543 26.4195C31.5038 26.429 31.5547 26.429 31.6043 26.4195C31.6787 26.3773 31.7345 26.3085 31.7604 26.2269C31.7864 26.1454 31.7806 26.057 31.7443 25.9795C31.4627 25.423 31.2575 24.831 31.1343 24.2195C31.1249 24.1779 31.1073 24.1386 31.0825 24.1039C31.0577 24.0692 31.0262 24.0398 30.9898 24.0174C30.9535 23.995 30.913 23.9802 30.8709 23.9737C30.8287 23.9672 30.7857 23.9691 30.7443 23.9795C30.7028 23.9879 30.6634 24.0044 30.6283 24.028C30.5933 24.0517 30.5633 24.082 30.54 24.1174C30.5168 24.1527 30.5007 24.1923 30.4929 24.2339C30.485 24.2755 30.4855 24.3181 30.4943 24.3595C30.6393 25.021 30.8643 25.6624 31.1643 26.2695C31.2124 26.2997 31.2676 26.3169 31.3243 26.3195L31.4543 26.4195ZM73.6443 23.7695C73.6898 23.7693 73.7348 23.7594 73.7761 23.7404C73.8175 23.7215 73.8544 23.6939 73.8843 23.6595C73.9442 23.5979 73.9776 23.5154 73.9776 23.4295C73.9776 23.3436 73.9442 23.2611 73.8843 23.1995L73.2843 22.6995L72.3543 21.9695C72.2851 21.917 72.1981 21.8938 72.112 21.9051C72.0259 21.9163 71.9476 21.961 71.8943 22.0295C71.8448 22.098 71.8235 22.1828 71.8346 22.2665C71.8458 22.3502 71.8886 22.4264 71.9543 22.4795L72.8743 23.1995L73.4643 23.6995C73.4818 23.6911 73.4986 23.6811 73.5142 23.6695L73.6443 23.7695ZM43.1243 23.6795C43.2102 23.6695 43.2886 23.6261 43.3429 23.5588C43.3971 23.4915 43.4227 23.4056 43.4143 23.3195C43.3379 22.6411 43.1973 21.9714 42.9943 21.3195C42.9828 21.2786 42.9633 21.2404 42.9369 21.2071C42.9104 21.1738 42.8777 21.1462 42.8404 21.1257C42.8032 21.1052 42.7623 21.0923 42.72 21.0878C42.6777 21.0833 42.635 21.0873 42.5943 21.0995C42.5535 21.1108 42.5154 21.1304 42.4825 21.157C42.4496 21.1836 42.4225 21.2166 42.4028 21.2541C42.3831 21.2916 42.3713 21.3327 42.3681 21.3749C42.3649 21.4171 42.3705 21.4595 42.3843 21.4995C42.5655 22.1043 42.6959 22.7231 42.7743 23.3495C42.7877 23.4037 42.8151 23.4535 42.8537 23.4938C42.8923 23.5342 42.9407 23.5637 42.9943 23.5795L43.1243 23.6795ZM30.6743 22.6795C30.7558 22.6797 30.8343 22.6487 30.8938 22.593C30.9532 22.5372 30.9892 22.4609 30.9943 22.3795C31.0404 21.7646 31.1821 21.1607 31.4143 20.5895C31.4307 20.5508 31.4394 20.5092 31.4398 20.4671C31.4402 20.425 31.4322 20.3833 31.4164 20.3443C31.4006 20.3053 31.3773 20.2697 31.3477 20.2397C31.3182 20.2098 31.2831 20.1859 31.2443 20.1695C31.2056 20.1531 31.1639 20.1444 31.1219 20.144C31.0798 20.1437 31.038 20.1516 30.999 20.1674C30.96 20.1832 30.9245 20.2065 30.8945 20.2361C30.8645 20.2656 30.8407 20.3008 30.8243 20.3395C30.5593 20.976 30.4005 21.6516 30.3543 22.3395C30.3502 22.3824 30.3547 22.4256 30.3677 22.4666C30.3807 22.5076 30.4018 22.5456 30.4298 22.5783C30.4578 22.611 30.4922 22.6377 30.5307 22.6568C30.5693 22.6759 30.6113 22.6871 30.6543 22.6895L30.6743 22.6795ZM70.4143 21.2695C70.4674 21.2704 70.5198 21.2581 70.567 21.2337C70.6141 21.2092 70.6544 21.1734 70.6843 21.1295C70.7316 21.0587 70.7497 20.9723 70.7348 20.8884C70.7199 20.8046 70.6731 20.7297 70.6043 20.6795C70.0643 20.3095 69.5042 19.9495 68.9543 19.6095C68.8798 19.5651 68.791 19.5517 68.7068 19.5723C68.6226 19.5929 68.5498 19.6458 68.5043 19.7195C68.4825 19.7556 68.4681 19.7956 68.4619 19.8373C68.4556 19.879 68.4576 19.9215 68.4679 19.9624C68.4781 20.0033 68.4963 20.0417 68.5214 20.0756C68.5465 20.1094 68.5781 20.1379 68.6143 20.1595C69.161 20.4995 69.7009 20.8495 70.2343 21.2095C70.2868 21.2473 70.3496 21.2682 70.4143 21.2695ZM41.9143 19.8195C41.957 19.8297 42.0015 19.8297 42.0443 19.8195C42.1233 19.7844 42.1854 19.7197 42.2172 19.6393C42.249 19.5589 42.2479 19.4692 42.2143 19.3895C41.9643 18.8195 41.6743 18.2195 41.3443 17.6195C41.3244 17.5817 41.2971 17.5482 41.264 17.5211C41.2309 17.4939 41.1928 17.4737 41.1518 17.4616C41.1107 17.4495 41.0677 17.4457 41.0252 17.4505C40.9827 17.4553 40.9416 17.4686 40.9043 17.4895C40.8298 17.5317 40.7746 17.6012 40.7503 17.6833C40.7261 17.7654 40.7346 17.8537 40.7743 17.9295C41.0943 18.5095 41.3843 19.0895 41.6243 19.6495C41.6478 19.7076 41.6877 19.7575 41.7393 19.793C41.7908 19.8286 41.8517 19.8482 41.9143 19.8495V19.8195ZM67.0443 19.2695C67.1036 19.2709 67.1622 19.2557 67.2134 19.2257C67.2646 19.1957 67.3064 19.152 67.3343 19.0995C67.3739 19.0236 67.3825 18.9353 67.3582 18.8532C67.334 18.7711 67.2788 18.7017 67.2043 18.6595C66.6343 18.3495 66.0443 18.0495 65.4543 17.7595C65.4162 17.7409 65.3749 17.7299 65.3326 17.7274C65.2903 17.7248 65.2479 17.7307 65.2079 17.7447C65.1679 17.7586 65.1311 17.7804 65.0996 17.8087C65.068 17.837 65.0424 17.8713 65.0243 17.9095C65.0056 17.9476 64.9947 17.9889 64.9922 18.0312C64.9896 18.0735 64.9955 18.1159 65.0094 18.1559C65.0234 18.1959 65.0452 18.2327 65.0735 18.2642C65.1018 18.2957 65.136 18.3214 65.1743 18.3395C65.7543 18.6195 66.3343 18.9195 66.8943 19.2295C66.9395 19.2567 66.9915 19.2706 67.0443 19.2695ZM31.9643 19.0195C32.0121 19.0189 32.0593 19.0078 32.1025 18.9871C32.1457 18.9663 32.1838 18.9365 32.2143 18.8995C32.6186 18.4266 33.0748 18.0005 33.5743 17.6295C33.6098 17.6057 33.64 17.5747 33.6629 17.5386C33.6859 17.5025 33.7012 17.4621 33.7077 17.4199C33.7143 17.3776 33.7121 17.3344 33.7011 17.2931C33.6902 17.2517 33.6708 17.213 33.6443 17.1795C33.6204 17.144 33.5895 17.1138 33.5534 17.0909C33.5173 17.0679 33.4769 17.0527 33.4346 17.0461C33.3923 17.0395 33.3492 17.0418 33.3078 17.0527C33.2665 17.0636 33.2278 17.0829 33.1943 17.1095C32.6501 17.5117 32.1535 17.9747 31.7143 18.4895C31.6573 18.5506 31.6257 18.631 31.6257 18.7145C31.6257 18.798 31.6573 18.8785 31.7143 18.9395C31.7584 18.9789 31.8121 19.0061 31.87 19.0183C31.9278 19.0306 31.9879 19.0276 32.0443 19.0095L31.9643 19.0195ZM63.5443 17.5695C63.6077 17.5665 63.6692 17.5464 63.722 17.5111C63.7749 17.4759 63.8171 17.427 63.8443 17.3695C63.8607 17.3308 63.8694 17.2892 63.8698 17.2471C63.8701 17.205 63.8622 17.1633 63.8464 17.1243C63.8306 17.0853 63.8073 17.0497 63.7777 17.0197C63.7482 16.9898 63.7131 16.9659 63.6743 16.9495C63.0643 16.6895 62.4543 16.4495 61.8443 16.2195C61.7633 16.1901 61.6741 16.1935 61.5956 16.229C61.5171 16.2645 61.4556 16.3293 61.4243 16.4095C61.3954 16.4918 61.4002 16.5821 61.4377 16.6608C61.4752 16.7395 61.5423 16.8001 61.6243 16.8295C62.2243 17.0495 62.8243 17.2895 63.4143 17.5395C63.4709 17.564 63.5336 17.5709 63.5943 17.5595L63.5443 17.5695ZM35.0543 16.6895C35.0998 16.7041 35.1488 16.7041 35.1943 16.6895C35.7668 16.4134 36.3544 16.1697 36.9543 15.9595C36.9945 15.946 37.0317 15.9247 37.0636 15.8967C37.0955 15.8687 37.1215 15.8346 37.1402 15.7964C37.1588 15.7583 37.1696 15.7168 37.172 15.6744C37.1744 15.632 37.1684 15.5896 37.1543 15.5495C37.1408 15.5093 37.1194 15.4721 37.0914 15.4402C37.0634 15.4083 37.0293 15.3823 36.9912 15.3636C36.953 15.345 36.9116 15.3342 36.8692 15.3318C36.8268 15.3294 36.7843 15.3354 36.7443 15.3495C36.1171 15.5679 35.5027 15.8216 34.9043 16.1095C34.828 16.15 34.7707 16.2187 34.7445 16.301C34.7184 16.3832 34.7254 16.4724 34.7642 16.5495C34.801 16.6032 34.8532 16.6443 34.914 16.6676C34.9747 16.6908 35.0411 16.695 35.1043 16.6795L35.0543 16.6895ZM40.0543 16.4195C40.1151 16.4233 40.1752 16.4056 40.2243 16.3695C40.2607 16.3481 40.2924 16.3194 40.3173 16.2853C40.3422 16.2512 40.3599 16.2123 40.3692 16.1711C40.3786 16.1299 40.3795 16.0872 40.3717 16.0457C40.364 16.0041 40.3479 15.9646 40.3243 15.9295C40.1643 15.6695 39.9943 15.4195 39.8243 15.1495L40.7143 14.9695C40.7978 14.9549 40.8721 14.9077 40.9208 14.8383C40.9696 14.7689 40.9888 14.6831 40.9743 14.5995C40.9671 14.5572 40.9515 14.5167 40.9283 14.4805C40.9051 14.4443 40.8749 14.4131 40.8394 14.3889C40.804 14.3646 40.764 14.3477 40.7219 14.3393C40.6798 14.3308 40.6364 14.3309 40.5943 14.3395C40.2043 14.4095 39.8143 14.4895 39.4343 14.5795L39.2343 14.2995C39.2103 14.2644 39.1795 14.2344 39.1437 14.2113C39.108 14.1882 39.068 14.1725 39.0261 14.165C38.9842 14.1576 38.9412 14.1585 38.8997 14.1679C38.8582 14.1773 38.8189 14.1948 38.7843 14.2195C38.7491 14.2436 38.7191 14.2743 38.696 14.3101C38.6729 14.3458 38.6572 14.3858 38.6497 14.4277C38.6423 14.4696 38.6433 14.5126 38.6527 14.5541C38.662 14.5956 38.6795 14.6349 38.7043 14.6695L38.7543 14.7395H38.6743C38.5908 14.763 38.5195 14.8175 38.4749 14.8919C38.4303 14.9662 38.4157 15.0548 38.4343 15.1395C38.4598 15.2211 38.5151 15.2901 38.5893 15.3328C38.6634 15.3754 38.7509 15.3885 38.8343 15.3695L39.1443 15.2995C39.3743 15.6195 39.5843 15.9495 39.7843 16.2995C39.8158 16.3371 39.8558 16.3667 39.901 16.3858C39.9462 16.405 39.9953 16.4131 40.0443 16.4095L40.0543 16.4195ZM59.9143 16.2095C59.983 16.2125 60.0508 16.1925 60.107 16.1526C60.1631 16.1128 60.2044 16.0554 60.2243 15.9895C60.2496 15.9073 60.2419 15.8184 60.2027 15.7418C60.1634 15.6652 60.0958 15.607 60.0142 15.5795C59.3942 15.3895 58.7543 15.1995 58.1243 15.0395C58.0836 15.0275 58.0408 15.0241 57.9987 15.0293C57.9566 15.0345 57.9159 15.0484 57.8794 15.0699C57.8428 15.0915 57.8111 15.1203 57.7861 15.1547C57.7611 15.189 57.7435 15.2281 57.7343 15.2695C57.7238 15.3102 57.7213 15.3526 57.7272 15.3943C57.7331 15.4359 57.7471 15.476 57.7685 15.5122C57.7898 15.5484 57.8181 15.5801 57.8517 15.6053C57.8853 15.6306 57.9235 15.6491 57.9643 15.6595C58.5843 15.8195 59.2043 16.0095 59.8243 16.1995L59.9143 16.2095ZM56.1543 15.2095C56.2285 15.2105 56.3007 15.1848 56.3576 15.1371C56.4145 15.0894 56.4523 15.0228 56.4643 14.9495C56.473 14.9081 56.4735 14.8654 56.4657 14.8239C56.4578 14.7823 56.4418 14.7427 56.4185 14.7074C56.3953 14.672 56.3653 14.6417 56.3302 14.618C56.2952 14.5944 56.2557 14.5779 56.2143 14.5695C55.5743 14.4295 54.9243 14.3095 54.2843 14.2095C54.2007 14.195 54.1149 14.2142 54.0455 14.263C53.9761 14.3117 53.9289 14.386 53.9143 14.4695C53.9057 14.5118 53.906 14.5553 53.9152 14.5974C53.9244 14.6396 53.9422 14.6793 53.9676 14.7141C53.993 14.7489 54.0254 14.7781 54.0627 14.7997C54.1 14.8212 54.1414 14.8348 54.1843 14.8395C54.8143 14.9495 55.4543 15.0695 56.0843 15.1995L56.1543 15.2095ZM42.5843 14.6595C43.2143 14.5695 43.8643 14.4995 44.5043 14.4495C44.5901 14.4419 44.6694 14.401 44.7255 14.3356C44.7815 14.2702 44.8098 14.1855 44.8043 14.0995C44.8005 14.0574 44.7884 14.0165 44.7688 13.9791C44.7491 13.9417 44.7223 13.9086 44.6897 13.8816C44.6572 13.8546 44.6196 13.8344 44.5792 13.822C44.5388 13.8097 44.4963 13.8054 44.4543 13.8095C43.8042 13.8095 43.1442 13.9295 42.4543 14.0195C42.4124 14.0244 42.3721 14.0377 42.3355 14.0587C42.299 14.0796 42.2671 14.1078 42.2418 14.1415C42.2166 14.1752 42.1985 14.2136 42.1886 14.2546C42.1787 14.2955 42.1772 14.338 42.1843 14.3795C42.1879 14.4281 42.2025 14.4751 42.2271 14.5172C42.2516 14.5592 42.2854 14.5951 42.3259 14.6221C42.3664 14.6491 42.4125 14.6665 42.4608 14.673C42.509 14.6795 42.5581 14.6749 42.6043 14.6595H42.5843ZM52.3043 14.5795C52.3842 14.5799 52.4614 14.5503 52.5206 14.4966C52.5798 14.443 52.6168 14.3691 52.6243 14.2895C52.6328 14.2061 52.6082 14.1228 52.5558 14.0573C52.5035 13.9919 52.4275 13.9496 52.3443 13.9395C51.6943 13.8595 51.0343 13.7995 50.3443 13.7595C50.3022 13.7568 50.26 13.7624 50.2202 13.7761C50.1803 13.7897 50.1436 13.8111 50.112 13.8389C50.0804 13.8668 50.0546 13.9006 50.0361 13.9385C50.0176 13.9763 50.0068 14.0175 50.0043 14.0595C50.0002 14.1019 50.0048 14.1446 50.0178 14.1851C50.0309 14.2255 50.0522 14.2628 50.0803 14.2947C50.1085 14.3266 50.1429 14.3524 50.1814 14.3704C50.2199 14.3884 50.2618 14.3984 50.3043 14.3995C50.9443 14.4495 51.5943 14.4995 52.2243 14.5795H52.3043ZM46.4643 14.3395C47.1143 14.3395 47.7543 14.3395 48.4043 14.3395C48.4458 14.3409 48.4872 14.3339 48.526 14.3189C48.5647 14.3039 48.6001 14.2813 48.63 14.2523C48.6598 14.2234 48.6835 14.1888 48.6997 14.1505C48.7159 14.1122 48.7243 14.0711 48.7243 14.0295C48.7256 13.9875 48.7186 13.9456 48.7038 13.9063C48.6889 13.8669 48.6665 13.8309 48.6377 13.8003C48.6089 13.7696 48.5743 13.7449 48.536 13.7277C48.4976 13.7104 48.4563 13.7008 48.4143 13.6995C47.7543 13.6995 47.1043 13.6995 46.4143 13.6995C46.3714 13.7008 46.3291 13.7107 46.2901 13.7286C46.2511 13.7465 46.2161 13.7721 46.1872 13.8038C46.1582 13.8355 46.136 13.8727 46.1218 13.9132C46.1076 13.9537 46.1016 13.9967 46.1043 14.0395C46.1063 14.0854 46.1182 14.1303 46.1392 14.1712C46.1601 14.2121 46.1896 14.248 46.2257 14.2764C46.2617 14.3049 46.3035 14.3253 46.3481 14.3362C46.3927 14.347 46.4392 14.3482 46.4843 14.3395H46.4643ZM37.8143 13.2295C37.8871 13.2304 37.9579 13.2056 38.0142 13.1595C38.0735 13.0996 38.1067 13.0188 38.1067 12.9345C38.1067 12.8503 38.0735 12.7694 38.0142 12.7095C37.6142 12.1895 37.1943 11.7095 36.7743 11.1795C36.7144 11.1203 36.6335 11.0871 36.5493 11.0871C36.465 11.0871 36.3842 11.1203 36.3243 11.1795C36.2644 11.2411 36.2309 11.3237 36.2309 11.4095C36.2309 11.4954 36.2644 11.5779 36.3243 11.6395C36.7343 12.1195 37.1543 12.6395 37.5443 13.1295C37.5759 13.1764 37.6194 13.2141 37.6704 13.2387C37.7213 13.2633 37.7779 13.2739 37.8343 13.2695L37.8143 13.2295ZM35.2743 10.2295C35.315 10.2297 35.3555 10.2219 35.3933 10.2065C35.431 10.191 35.4653 10.1683 35.4943 10.1395C35.5249 10.1106 35.5492 10.0757 35.5658 10.037C35.5825 9.9983 35.591 9.95663 35.591 9.91452C35.591 9.87241 35.5825 9.83077 35.5658 9.79208C35.5492 9.7534 35.5249 9.71851 35.4943 9.68954C35.0443 9.20955 34.5743 8.74954 34.0943 8.30954C34.0653 8.27898 34.0304 8.25464 33.9917 8.23801C33.953 8.22137 33.9114 8.21277 33.8693 8.21277C33.8272 8.21277 33.7855 8.22137 33.7468 8.23801C33.7081 8.25464 33.6732 8.27898 33.6443 8.30954C33.6134 8.33938 33.5889 8.3751 33.5722 8.41461C33.5554 8.45412 33.5468 8.4966 33.5468 8.53952C33.5468 8.58244 33.5554 8.62492 33.5722 8.66443C33.5889 8.70394 33.6134 8.73969 33.6443 8.76953C34.1143 9.19953 34.5743 9.65954 35.0243 10.1195C35.0506 10.1674 35.0899 10.2069 35.1377 10.2335C35.1854 10.26 35.2397 10.2725 35.2943 10.2695L35.2743 10.2295ZM32.4243 7.57953C32.5188 7.57713 32.6086 7.53763 32.6743 7.46954C32.7341 7.40795 32.7676 7.32543 32.7676 7.23953C32.7676 7.15364 32.7341 7.07112 32.6743 7.00952C32.1643 6.58952 31.6743 6.18954 31.1143 5.80954C31.0796 5.78483 31.0404 5.76727 30.9989 5.7579C30.9573 5.74854 30.9144 5.74756 30.8725 5.755C30.8306 5.76245 30.7906 5.7782 30.7548 5.8013C30.7191 5.8244 30.6883 5.85438 30.6643 5.88953C30.6391 5.92357 30.6209 5.96228 30.6107 6.00342C30.6006 6.04455 30.5987 6.08729 30.6053 6.12915C30.6118 6.17101 30.6265 6.21117 30.6486 6.24728C30.6708 6.2834 30.6999 6.31476 30.7343 6.33954C31.2543 6.71287 31.7642 7.10285 32.2642 7.50952C32.3095 7.5661 32.3733 7.60504 32.4443 7.61954L32.4243 7.57953ZM29.2543 5.31952C29.3083 5.31933 29.3614 5.30549 29.4086 5.27927C29.4558 5.25304 29.4956 5.21528 29.5243 5.16953C29.5696 5.0963 29.5846 5.00824 29.5659 4.92416C29.5472 4.84008 29.4964 4.76667 29.4243 4.71954C28.8643 4.37954 28.2843 4.04954 27.7043 3.71954C27.6272 3.6807 27.538 3.6736 27.4557 3.69977C27.3735 3.72594 27.3047 3.78328 27.2642 3.85953C27.2259 3.93513 27.2191 4.02286 27.2453 4.10349C27.2716 4.18411 27.3287 4.25102 27.4043 4.28952C27.9743 4.58952 28.5343 4.90952 29.0843 5.28952C29.1096 5.3133 29.1396 5.33176 29.1722 5.34378C29.2048 5.3558 29.2395 5.36116 29.2743 5.35953L29.2543 5.31952ZM25.7943 3.51953C25.8575 3.52102 25.9197 3.50378 25.9731 3.46997C26.0264 3.43616 26.0686 3.38728 26.0943 3.32953C26.1107 3.2908 26.1194 3.24921 26.1198 3.20712C26.1201 3.16504 26.1122 3.12327 26.0964 3.08426C26.0806 3.04524 26.0573 3.00972 26.0277 2.97974C25.9982 2.94975 25.9631 2.92592 25.9243 2.90955C25.3243 2.64955 24.7043 2.40954 24.0843 2.18954C24.0442 2.1754 24.0018 2.16936 23.9594 2.17178C23.9171 2.17421 23.8755 2.18503 23.8374 2.20364C23.7992 2.22226 23.7652 2.24827 23.7372 2.28018C23.7092 2.31209 23.6878 2.34927 23.6743 2.38953C23.6601 2.42956 23.6541 2.47202 23.6565 2.5144C23.659 2.55679 23.6698 2.59825 23.6884 2.63641C23.707 2.67457 23.733 2.70866 23.7649 2.73666C23.7968 2.76467 23.834 2.78603 23.8743 2.79953C24.4743 3.00953 25.0843 3.24954 25.6643 3.49954C25.7083 3.53204 25.76 3.5527 25.8143 3.55954L25.7943 3.51953ZM0.894257 2.71954H0.964264L2.86429 2.31952C2.90665 2.31234 2.94711 2.29672 2.98331 2.27356C3.0195 2.2504 3.05066 2.22019 3.07492 2.18472C3.09918 2.14926 3.11607 2.10926 3.12454 2.06714C3.13302 2.02501 3.13296 1.98163 3.1243 1.93954C3.10512 1.85708 3.05495 1.78515 2.98422 1.73862C2.91349 1.69209 2.82761 1.67452 2.74429 1.68954C2.10429 1.80954 1.46431 1.94954 0.82431 2.08954C0.741852 2.10872 0.669914 2.15886 0.623383 2.22958C0.576851 2.30031 0.55928 2.38623 0.57431 2.46954C0.586388 2.5508 0.627472 2.62491 0.689972 2.67822C0.752472 2.73153 0.83213 2.76041 0.914276 2.75952L0.894257 2.71954ZM22.1143 2.23953C22.187 2.24183 22.2582 2.21931 22.3164 2.17569C22.3745 2.13207 22.4162 2.06995 22.4343 1.99954C22.4448 1.95883 22.4472 1.91642 22.4413 1.87479C22.4354 1.83315 22.4215 1.79309 22.4001 1.75687C22.3788 1.72065 22.3505 1.68898 22.3169 1.6637C22.2833 1.63842 22.245 1.62001 22.2043 1.60953C21.5743 1.43953 20.9343 1.27954 20.2843 1.14954C20.1995 1.13481 20.1124 1.15374 20.0415 1.2023C19.9705 1.25086 19.9212 1.32524 19.9043 1.40955C19.8892 1.49286 19.9068 1.57875 19.9533 1.64948C19.9999 1.7202 20.0718 1.77034 20.1543 1.78952C20.7943 1.90952 21.4243 2.05952 22.0343 2.22952L22.1143 2.23953ZM4.71426 1.95953H4.77426C5.44093 1.8462 6.08097 1.74621 6.69431 1.65955C6.77845 1.64481 6.85355 1.598 6.9039 1.52899C6.95425 1.45999 6.9759 1.37415 6.96426 1.28952C6.95943 1.24769 6.94617 1.20729 6.9252 1.17078C6.90424 1.13426 6.876 1.10238 6.84232 1.07712C6.80863 1.05185 6.77014 1.03374 6.72922 1.02383C6.68829 1.01393 6.64579 1.01246 6.60428 1.01953C5.95428 1.10953 5.31428 1.20952 4.66428 1.31952C4.58076 1.33416 4.50648 1.38137 4.45773 1.45074C4.40898 1.52012 4.38975 1.60601 4.40427 1.68954C4.40417 1.73199 4.41284 1.77398 4.42966 1.81296C4.44647 1.85193 4.47111 1.88704 4.50204 1.91611C4.53298 1.94517 4.56958 1.96759 4.60953 1.98193C4.64948 1.99628 4.69193 2.00228 4.73428 1.99954L4.71426 1.95953ZM18.3043 1.46954C18.3821 1.46808 18.4569 1.43917 18.5154 1.38794C18.574 1.33671 18.6125 1.26645 18.6243 1.18954C18.6299 1.14747 18.627 1.10469 18.6159 1.06372C18.6048 1.02275 18.5857 0.9844 18.5597 0.950897C18.5336 0.917394 18.5011 0.889397 18.4641 0.868561C18.4272 0.847724 18.3864 0.834464 18.3443 0.829529C17.7043 0.739529 17.0443 0.669537 16.3443 0.619537C16.3027 0.615425 16.2609 0.619722 16.221 0.632202C16.1812 0.644683 16.1443 0.66509 16.1126 0.692169C16.0808 0.719249 16.0548 0.752444 16.0362 0.789795C16.0176 0.827146 16.0068 0.867892 16.0043 0.909546C16.0002 0.951603 16.0044 0.994045 16.0168 1.03445C16.0291 1.07486 16.0494 1.11242 16.0763 1.14496C16.1033 1.1775 16.1365 1.2044 16.1739 1.22406C16.2113 1.24372 16.2522 1.25576 16.2943 1.25952C16.9443 1.30952 17.5943 1.37954 18.2143 1.46954H18.3043ZM8.57431 1.41953C9.21431 1.34953 9.8643 1.29954 10.5043 1.24954C10.5464 1.247 10.5875 1.23616 10.6253 1.21768C10.6632 1.1992 10.697 1.17344 10.7249 1.14185C10.7528 1.11026 10.7741 1.07346 10.7878 1.0336C10.8014 0.993735 10.807 0.951587 10.8043 0.909546C10.8018 0.866582 10.7907 0.824541 10.7716 0.78598C10.7525 0.747419 10.7258 0.713127 10.6931 0.68512C10.6604 0.657112 10.6224 0.635972 10.5814 0.622986C10.5404 0.61 10.4971 0.605421 10.4543 0.609528C9.80425 0.609528 9.15425 0.709541 8.45425 0.779541C8.41216 0.783301 8.37124 0.795339 8.33383 0.815002C8.29642 0.834666 8.26332 0.861563 8.23636 0.894104C8.2094 0.926645 8.18916 0.964199 8.17679 1.00461C8.16442 1.04502 8.16015 1.08746 8.16428 1.12952C8.15919 1.18344 8.1679 1.23779 8.18954 1.28745C8.21119 1.3371 8.24509 1.38045 8.28806 1.41342C8.33102 1.4464 8.38165 1.46792 8.43521 1.47598C8.48877 1.48405 8.5435 1.47839 8.59427 1.45953L8.57431 1.41953ZM14.4143 1.15955C14.4984 1.1597 14.5795 1.12766 14.6408 1.07004C14.7022 1.01241 14.7392 0.933527 14.7443 0.849518C14.7456 0.806661 14.7383 0.763985 14.7229 0.723999C14.7074 0.684013 14.684 0.647542 14.6541 0.61676C14.6243 0.585978 14.5886 0.561503 14.5491 0.5448C14.5096 0.528097 14.4672 0.51951 14.4243 0.519531C13.7743 0.519531 13.1143 0.519531 12.4243 0.519531C12.3814 0.51951 12.339 0.528097 12.2995 0.5448C12.26 0.561503 12.2242 0.585978 12.1944 0.61676C12.1645 0.647542 12.1412 0.684013 12.1257 0.723999C12.1102 0.763985 12.1029 0.806661 12.1043 0.849518C12.1069 0.932642 12.1417 1.0115 12.2014 1.06937C12.2612 1.12723 12.3411 1.15959 12.4243 1.15955H14.3743H14.4143Z" fill="#999999"/>
</svg>
